# xmcd
#
# Track frame offsets:
#	187
#	19140
#	40467
#	62280
#
# Disc length: 1304 seconds
#
# Revision: 1
# Processed by: cddbd v1.5PL3 Copyright (c) Steve Scherf et al.
# Submitted via: CDex 1.50Beta5
#
DISCID=2a051604
DTITLE=Hummingbird - 光なき夜をゆけ/風と木と光の街で
DYEAR=1900
DGENRE=Rock
TTITLE0=光なき夜をゆけ
TTITLE1=風と木と光の街で
TTITLE2=光なき夜をゆけ
TTITLE3=風と木と光の街で
EXTD=人形草紙あやつり左近OPテーマ
EXTT0=
EXTT1=
EXTT2=
EXTT3=
PLAYORDER=
